<svg width="14" height="22" viewBox="0 0 14 22" fill="none" xmlns="http://www.w3.org/2000/svg">
<path d="M12 22H2C0.9 22 0 21.1 0 20V1H2V20H12V1H14V20C14 21.1 13.1 22 12 22Z" fill="#131E29"/>
<path d="M14 2.5H13V1H1V2.5H0V1C0 0.4 0.4 0 1 0H13C13.6 0 14 0.4 14 1V2.5Z" fill="#131E29"/>
<path d="M8.4 3H5.6C4.7 3 3.9 2.5 3.6 1.7C3.3 1.3 2.9 1 2.4 1H2V0H2.4C3.3 0 4.1 0.5 4.5 1.3C4.7 1.7 5.1 2 5.6 2H8.4C8.9 2 9.3 1.7 9.6 1.3C9.9 0.5 10.7 0 11.6 0H12V1H11.6C11.1 1 10.7 1.3 10.4 1.7C10.1 2.5 9.3 3 8.4 3Z" fill="#131E29"/>
<path d="M5 18H3V19H5V18Z" fill="#131E29"/>
<path d="M8 18H6V19H8V18Z" fill="#131E29"/>
<path d="M11 18H9V19H11V18Z" fill="#131E29"/>
<path d="M10.5 14H9.3C5.8 14 3 11.2 3 7.7V6.5C3 6.2 3.2 6 3.5 6H5.5C5.7 6 5.9 6.1 6 6.4L6.5 8C6.5 8.2 6.5 8.4 6.4 8.5L5.7 9.1C6.2 10 7 10.8 7.9 11.3L8.5 10.7C8.6 10.6 8.8 10.5 9 10.6L10.6 11.1C10.8 11.2 11 11.4 11 11.6V13.6C11 13.8 10.8 14 10.5 14ZM4 7V7.7C4 10.6 6.4 13 9.3 13H10V11.9L9 11.6L8.4 12.2C8.3 12.3 8 12.4 7.9 12.3C6.5 11.7 5.3 10.6 4.7 9.1C4.6 9 4.7 8.8 4.8 8.6L5.4 8L5.1 7H4Z" fill="#131E29"/>
</svg>
