<svg width="27" height="22" viewBox="0 0 27 22" fill="none" xmlns="http://www.w3.org/2000/svg">
<g clip-path="url(#clip0)">
<path d="M6.69999 21.2001C4.59999 21.2001 2.89999 19.5001 2.89999 17.4001C2.89999 15.3001 4.59999 13.6001 6.69999 13.6001C8.79999 13.6001 10.5 15.3001 10.5 17.4001C10.5 19.5001 8.79999 21.2001 6.69999 21.2001ZM6.69999 15.6001C5.69999 15.6001 4.89999 16.4001 4.89999 17.4001C4.89999 18.4001 5.69999 19.2001 6.69999 19.2001C7.69999 19.2001 8.49999 18.4001 8.49999 17.4001C8.49999 16.4001 7.69999 15.6001 6.69999 15.6001Z" fill="#131E29"/>
<path d="M19.7 21.2001C17.6 21.2001 15.9 19.5001 15.9 17.4001C15.9 15.3001 17.6 13.6001 19.7 13.6001C21.8 13.6001 23.5 15.3001 23.5 17.4001C23.5 19.5001 21.8 21.2001 19.7 21.2001ZM19.7 15.6001C18.7 15.6001 17.9 16.4001 17.9 17.4001C17.9 18.4001 18.7 19.2001 19.7 19.2001C20.7 19.2001 21.5 18.4001 21.5 17.4001C21.5 16.4001 20.7 15.6001 19.7 15.6001Z" fill="#131E29"/>
<path d="M23.6 19H22.5V17H23.6C24 17 24.3 16.7 24.3 16.3V12C24.3 11.9 24.3 11.9 24.2 11.9L22.8 11.4L20.1 2.5C20.1 2.2 19.8 2 19.5 2H2V16.8C2 16.9 2.1 17 2.1 17H3.8V19H2.1C1 19 0 18 0 16.8V0H19.5C20.7 0 21.7 0.8 22.1 1.9L24.5 9.8L24.9 9.9C25.8 10.2 26.4 11 26.4 11.9V16.2C26.3 17.8 25.1 19 23.6 19Z" fill="#131E29"/>
<path d="M16.8 17H9.5V19H16.8V17Z" fill="#131E29"/>
<path d="M23.3 11.6L17 9.7V1H19V8.2L23.9 9.7L23.3 11.6Z" fill="#131E29"/>
</g>
<defs>
<clipPath id="clip0">
<rect width="26.3" height="21.2" fill="white"/>
</clipPath>
</defs>
</svg>
