<svg width="20" height="16" viewBox="0 0 20 16" fill="none" xmlns="http://www.w3.org/2000/svg">
<path d="M12.7886 11.3151C9.30563 11.449 8.90375 12.2528 5.28678 13.8603L4.48301 11.3151H1.80377C1.26792 11.3151 1 10.9132 1 10.5113V1.80377C1 1.26792 1.40189 1 1.80377 1H17.3433C17.8792 1 18.1471 1.40189 18.1471 1.80377V9.03771" stroke="white" stroke-width="0.729" stroke-miterlimit="10" stroke-linejoin="round"/>
<path d="M3.54532 3.94717H15.6019" stroke="white" stroke-width="0.729" stroke-miterlimit="10"/>
<path d="M3.54532 6.49243H8.76983" stroke="white" stroke-width="0.729" stroke-miterlimit="10"/>
<path d="M9.57358 6.49243H16.4056" stroke="white" stroke-width="0.729" stroke-miterlimit="10"/>
<path d="M3.54532 8.23392H11.3151" stroke="white" stroke-width="0.729" stroke-miterlimit="10"/>
<path d="M16.0037 15.1999C17.9273 15.1999 19.4867 13.6405 19.4867 11.7169C19.4867 9.79331 17.9273 8.23392 16.0037 8.23392C14.0801 8.23392 12.5207 9.79331 12.5207 11.7169C12.5207 13.6405 14.0801 15.1999 16.0037 15.1999Z" stroke="white" stroke-width="0.729" stroke-miterlimit="10"/>
<path d="M16.0038 13.8603V11.7169H14.7981" stroke="white" stroke-width="0.729" stroke-miterlimit="10"/>
<path d="M16.0037 9.57355V9.97543V10.3773" stroke="white" stroke-width="0.729" stroke-miterlimit="10"/>
</svg>
