<svg width="12" height="12" viewBox="0 0 12 12" fill="none" xmlns="http://www.w3.org/2000/svg">
<path d="M11.483 9.03574e-07H0.51685C0.323436 -0.000356025 0.14612 0.105056 0.0577054 0.272931C-0.0319284 0.443066 -0.0161968 0.647942 0.098315 0.803324L4.11586 6.32474C4.1172 6.32665 4.11867 6.32843 4.12001 6.33034C4.26598 6.5226 4.34488 6.75544 4.34537 6.99481V11.4964C4.34452 11.6297 4.39818 11.7578 4.49452 11.8524C4.59086 11.9469 4.72183 12 4.85842 12C4.92793 12 4.99659 11.9864 5.06074 11.9605L7.31829 11.1207C7.5206 11.0604 7.65487 10.8743 7.65487 10.65V6.99481C7.65524 6.75555 7.73426 6.5226 7.88011 6.33034C7.88146 6.32843 7.88292 6.32665 7.88426 6.32474L11.9017 0.803086C12.0162 0.647823 12.0319 0.443066 11.9423 0.272931C11.8539 0.105056 11.6766 -0.000356025 11.483 9.03574e-07ZM7.3767 5.96948C7.15231 6.26657 7.03097 6.62575 7.03024 6.99481V10.576L4.96976 11.3424V6.99481C4.96903 6.62575 4.84769 6.26657 4.62318 5.96948L0.722825 0.609156H11.2772L7.3767 5.96948Z" fill="white"/>
</svg>
