<svg xmlns="http://www.w3.org/2000/svg" viewBox="0 0 82.21 82.19"><defs><style>.cls-1{fill:#377c53;}.cls-2{fill:#42210b;}.cls-3{fill:#59b27d;stroke-width:4.05px;}.cls-3,.cls-4{stroke:#42210b;}.cls-3,.cls-4,.cls-5{stroke-linejoin:round;}.cls-4,.cls-5{fill:none;stroke-width:4.6px;}.cls-5{stroke:#fff;stroke-linecap:round;}</style></defs><title>iconos</title><g id="Layer_1" data-name="Layer 1"><path class="cls-1" d="M44.63,75a2.31,2.31,0,0,1-2.3-2.37l.47-14.73a2.32,2.32,0,0,1,.59-1.47l17-18.74A2.29,2.29,0,0,1,62.07,37a2.21,2.21,0,0,1,.9.19,2.28,2.28,0,0,1,1.39,2.27L62.69,63.06a2.31,2.31,0,0,1-1.07,1.79L45.84,74.67A2.21,2.21,0,0,1,44.63,75Z"/><path class="cls-2" d="M62.07,39.25,60.4,62.9,44.63,72.72,45.1,58l17-18.74m0-4.6a4.61,4.61,0,0,0-3.41,1.51l-17,18.74a4.64,4.64,0,0,0-1.19,2.94L40,72.58a4.61,4.61,0,0,0,7,4L62.83,66.8A4.62,4.62,0,0,0,65,63.22l1.67-23.64A4.6,4.6,0,0,0,63.87,35a4.53,4.53,0,0,0-1.8-.37Z"/><path class="cls-3" d="M9.59,40a2.3,2.3,0,0,1-1.95-3.52L17.46,20.7a2.32,2.32,0,0,1,1.8-1.08L42.9,18h.17a2.3,2.3,0,0,1,1.54,4l-18.74,17a2.26,2.26,0,0,1-1.47.59Z"/><path class="cls-2" d="M43.07,20.25l-18.74,17-14.74.47,9.83-15.77,23.65-1.67m0-4.6h-.33L19.09,17.33a4.57,4.57,0,0,0-3.58,2.16L5.69,35.26a4.6,4.6,0,0,0,3.9,7h.15l14.73-.48a4.58,4.58,0,0,0,2.94-1.18l18.74-17a4.6,4.6,0,0,0-3.08-8Z"/><path class="cls-3" d="M42.43,58.45a2.3,2.3,0,0,1-1.63-.68L24.42,41.39a2.31,2.31,0,0,1-.67-1.63,2.29,2.29,0,0,1,.67-1.62l29-29c4-4,11.3-6.82,17.72-6.82a17.54,17.54,0,0,1,6.14,1,2.41,2.41,0,0,1,.91.51,2.29,2.29,0,0,1,.67,1.1c2.86,7.78-.74,18.75-5.81,23.82l-29,29A2.3,2.3,0,0,1,42.43,58.45Z"/><path class="cls-2" d="M71.17,4.6a15.35,15.35,0,0,1,5.48.93h0c2.62,6.81-.69,17.06-5.22,21.59l-29,29L26.05,39.76l29-29c3.42-3.41,10.1-6.14,16.1-6.14m0-4.6h0c-7,0-14.94,3.08-19.35,7.49l-29,29a4.62,4.62,0,0,0,0,6.51L39.18,59.4a4.59,4.59,0,0,0,6.5,0l29-29c5.68-5.69,9.55-17.53,6.34-26.25a4.87,4.87,0,0,0-.8-1.49A4.68,4.68,0,0,0,78,1.11,19.92,19.92,0,0,0,71.17,0Z"/><path class="cls-1" d="M76.67,5.56c2.61,6.81-.7,17-5.22,21.57l-29,29L34.26,48Z"/><path class="cls-4" d="M61,16a3.67,3.67,0,1,0,5.19,0A3.66,3.66,0,0,0,61,16Z"/><line class="cls-5" x1="25.69" y1="56.62" x2="6.13" y2="76.18"/><line class="cls-5" x1="16.91" y1="47.84" x2="2.3" y2="62.45"/><line class="cls-5" x1="34.35" y1="65.28" x2="19.74" y2="79.89"/><line class="cls-5" x1="37.72" y1="36.47" x2="48.22" y2="26.47"/></g></svg>