<svg xmlns="http://www.w3.org/2000/svg" viewBox="0 0 100.84 95.52"><defs><style>.cls-1{fill:#59b27d;}.cls-2,.cls-3,.cls-4{fill:none;stroke-linejoin:round;stroke-width:4.6px;}.cls-2{stroke:#fff;}.cls-2,.cls-4{stroke-linecap:round;}.cls-3{stroke:#42210b;}.cls-4{stroke:#59b27d;}</style></defs><title>iconos</title><g id="Layer_1" data-name="Layer 1"><path class="cls-1" d="M29,50.67a21.26,21.26,0,0,0,6,14.87c4.38,4.52,6.52,8.89,6.52,13.37v3.45c0,4.62,3.3,8.75,9.12,8.75l.07-61.78A21.26,21.26,0,0,0,29,50.67Z"/><path class="cls-2" d="M61.09,40.7A15.67,15.67,0,0,0,50,36.1"/><line class="cls-3" x1="40.34" y1="77.25" x2="60.65" y2="77.25"/><line class="cls-3" x1="40.34" y1="84.31" x2="60.65" y2="84.31"/><path class="cls-3" d="M73.83,50.67A23.41,23.41,0,1,0,33.62,67c3.21,3.31,6,7.35,6,12v3.45a10.86,10.86,0,1,0,21.71,0V78.91c0-4.61,2.73-8.65,6-12A23.32,23.32,0,0,0,73.83,50.67Z"/><line class="cls-4" x1="16.39" y1="84.45" x2="26" y2="74.84"/><line class="cls-4" x1="2.3" y1="50.42" x2="15.89" y2="50.42"/><line class="cls-4" x1="16.39" y1="16.39" x2="26" y2="26"/><line class="cls-4" x1="50.42" y1="2.3" x2="50.42" y2="15.89"/><line class="cls-4" x1="84.45" y1="16.39" x2="74.84" y2="26"/><line class="cls-4" x1="98.54" y1="50.42" x2="84.96" y2="50.42"/><line class="cls-4" x1="84.45" y1="84.45" x2="74.84" y2="74.84"/></g></svg>