<svg xmlns="http://www.w3.org/2000/svg" viewBox="0 0 89.89 61.74"><defs><style>.cls-1{fill:#59b27d;stroke-width:4.05px;}.cls-1,.cls-4,.cls-5{stroke:#42210b;}.cls-1,.cls-4,.cls-5,.cls-6{stroke-linejoin:round;}.cls-2{fill:#42210b;}.cls-3{fill:#377c53;}.cls-4{fill:#fff;}.cls-4,.cls-5,.cls-6{stroke-linecap:round;stroke-width:4.6px;}.cls-5{fill:#ffcb05;}.cls-6{fill:none;stroke:#fff;}</style></defs><title>iconos</title><g id="Layer_1" data-name="Layer 1"><path class="cls-1" d="M8.78,52a2.3,2.3,0,0,1-2.3-2.3V34.77a13.05,13.05,0,0,1,4.29-9.67l8-7.29A14.65,14.65,0,0,1,28.65,14H48.51a2.3,2.3,0,0,1,2.3,2.3V49.7a2.3,2.3,0,0,1-2.3,2.3Z"/><path class="cls-2" d="M48.51,16.32V49.7H8.78V34.77a10.76,10.76,0,0,1,3.53-8l8-7.29a12.42,12.42,0,0,1,8.3-3.2H48.51m0-4.6H28.65a16.9,16.9,0,0,0-11.38,4.39l-8,7.29a15.37,15.37,0,0,0-5,11.37V49.7a4.6,4.6,0,0,0,4.6,4.6H48.51a4.59,4.59,0,0,0,4.6-4.6V16.32a4.59,4.59,0,0,0-4.6-4.6Z"/><path class="cls-3" d="M48.51,49.7H8.78V34.77A10.72,10.72,0,0,1,10.49,29h38Z"/><path class="cls-4" d="M34.53,30.65H20a1,1,0,0,1-.65-1.86l5-4A8.47,8.47,0,0,1,29.59,23h4.33"/><line class="cls-5" x1="8.33" y1="52.06" x2="2.3" y2="52.06"/><path class="cls-1" d="M21.19,59.44a8.56,8.56,0,1,1,8.55-8.55A8.56,8.56,0,0,1,21.19,59.44Z"/><path class="cls-2" d="M21.19,44.63a6.26,6.26,0,1,1-6.25,6.26,6.25,6.25,0,0,1,6.25-6.26m0-4.6A10.86,10.86,0,1,0,32,50.89,10.87,10.87,0,0,0,21.19,40Z"/><path class="cls-1" d="M50.77,52.19c-10.55,0-13.31-.64-14.54-1.2a2.3,2.3,0,0,1-1.35-2.09V11.43A9.14,9.14,0,0,1,44,2.3H78.46a9.14,9.14,0,0,1,9.13,9.13V42.87A9.14,9.14,0,0,1,78.46,52h-17s-5.11.19-10.66.19Z"/><path class="cls-2" d="M78.46,4.6a6.83,6.83,0,0,1,6.83,6.83V42.87a6.83,6.83,0,0,1-6.83,6.83h-17s-5.09.19-10.66.19-11.84-.2-13.59-1V11.43A6.83,6.83,0,0,1,44,4.6H78.46m0-4.6H44A11.44,11.44,0,0,0,32.58,11.43V48.9a4.58,4.58,0,0,0,2.7,4.19c1.61.73,4.6,1.4,15.49,1.4,5.26,0,10-.16,10.74-.19H78.46A11.45,11.45,0,0,0,89.89,42.87V11.43A11.45,11.45,0,0,0,78.46,0Z"/><path class="cls-3" d="M85.29,29V42.87a6.83,6.83,0,0,1-6.83,6.83h-17s-20.78.77-24.25-.8V29Z"/><path class="cls-6" d="M78.46,22.81v-7.7a3.78,3.78,0,0,0-3.78-3.78H61"/><path class="cls-1" d="M62.72,59.44a8.56,8.56,0,1,1,8.56-8.55A8.57,8.57,0,0,1,62.72,59.44Z"/><path class="cls-2" d="M62.72,44.63a6.26,6.26,0,1,1-6.25,6.26,6.26,6.26,0,0,1,6.25-6.26m0-4.6A10.86,10.86,0,1,0,73.58,50.89,10.87,10.87,0,0,0,62.72,40Z"/></g></svg>