<svg xmlns="http://www.w3.org/2000/svg" viewBox="0 0 53.26 71.41"><defs><style>.cls-1,.cls-5{fill:none;stroke-width:4.6px;}.cls-1,.cls-2{stroke:#42210b;}.cls-1,.cls-2,.cls-5{stroke-linejoin:round;}.cls-2{fill:#59b27d;stroke-width:4.05px;}.cls-3{fill:#377c53;}.cls-4{fill:#42210b;}.cls-5{stroke:#fff;stroke-linecap:round;}</style></defs><title>iconos</title><g id="Layer_1" data-name="Layer 1"><path class="cls-1" d="M44.3,41.2V20A17.67,17.67,0,0,0,9,20V41.2Z"/><path class="cls-2" d="M2.3,27.11V44.78a24.33,24.33,0,0,0,48.66,0V27.11Z"/><path class="cls-3" d="M4.6,29.41V44.78a22,22,0,0,0,21.78,22V29.41Z"/><path class="cls-4" d="M29.91,55.38a2.16,2.16,0,0,0,2-3l-2.53-6.1a5.43,5.43,0,1,0-5.5,0l-2.53,6.1a2.17,2.17,0,0,0,2,3Z"/><path class="cls-5" d="M38.9,52.08a12.6,12.6,0,0,0,2.26-7.16V36"/></g></svg>