<svg xmlns="http://www.w3.org/2000/svg" viewBox="0 0 76.51 92.3"><defs><style>.cls-1{fill:#59b27d;}.cls-1,.cls-3,.cls-6,.cls-7,.cls-8{stroke:#42210b;stroke-width:4.05px;}.cls-1,.cls-3,.cls-6,.cls-7,.cls-8,.cls-9{stroke-linejoin:round;}.cls-2{fill:#377c53;}.cls-3,.cls-9{fill:none;}.cls-3,.cls-7,.cls-9{stroke-linecap:round;}.cls-4,.cls-7{fill:#fff;}.cls-5{fill:#42210b;}.cls-6{fill:#ffcb05;}.cls-8{fill:#3a8257;}.cls-9{stroke:#fff;stroke-width:4.6px;}</style></defs><title>iconos</title><g id="Layer_1" data-name="Layer 1"><path class="cls-1" d="M19.91,32.77c-2.27,0-7.55.52-9.47,1.43A14.77,14.77,0,0,0,2,47.54V56.7a14.77,14.77,0,0,0,6.5,12.24V81.4H34.68V47.54A14.77,14.77,0,0,0,19.91,32.77Z"/><path class="cls-2" d="M32.88,50.32H3.82V56.7A13,13,0,0,0,9.54,67.45a1.8,1.8,0,0,1,.79,1.49V79.61H32.88Z"/><path class="cls-3" d="M25.88,81.4V68.94a20.18,20.18,0,0,0,3.21-2.69"/><line class="cls-3" x1="2.57" y1="51.82" x2="13.23" y2="51.82"/><rect class="cls-1" x="41.46" y="42.35" width="30.29" height="27.3"/><rect class="cls-1" x="38.6" y="37.8" width="35.88" height="6.5"/><path class="cls-1" d="M65.14,30.26c-1.55.58-4.27,2.95-7.61,6,4.54.14,8.16.15,9.71-.43a3,3,0,1,0-2.1-5.61Z"/><rect class="cls-2" x="40.4" y="39.6" width="16.48" height="2.91"/><rect class="cls-2" x="43.26" y="46.1" width="13.62" height="21.76"/><path class="cls-1" d="M48.5,30.26c1.56.58,4.28,2.95,7.62,6-4.54.14-8.16.15-9.71-.43a3,3,0,0,1,2.09-5.61Z"/><path class="cls-4" d="M35.76,61.8A3.73,3.73,0,0,1,32,58.1V53.59a2.34,2.34,0,0,1-.2-.65,2.21,2.21,0,0,1,.47-1.68l.08-.11.19-.24,1.88-2.4.08-.09.85-1a3.71,3.71,0,0,1,2.37-1.32,5.09,5.09,0,0,1,.54,0A3.69,3.69,0,0,1,42,49.18a3.49,3.49,0,0,1,0,1.07h2.76a3.7,3.7,0,0,1,3.7,3.7V58.1a3.68,3.68,0,0,1-3.65,3.7Z"/><path class="cls-5" d="M38.28,48.14A1.69,1.69,0,0,1,40,49.5a1.52,1.52,0,0,1-.31,1.18c-.11.14-.47.57-.81,1s-.1.65.22.65h5.67A1.67,1.67,0,0,1,46.41,54V58.1a1.65,1.65,0,0,1-1.62,1.68h-9a1.69,1.69,0,0,1-1.71-1.68V53a.25.25,0,0,0-.1-.2.22.22,0,0,1-.09-.3l.12-.14s.07-.06.07-.1h0s0-.06.07-.09L36,49.77l.87-1A1.72,1.72,0,0,1,38,48.16l.25,0m0-4h0a7.52,7.52,0,0,0-.82,0,5.79,5.79,0,0,0-3.63,2l-.82.92c-.06.06-.11.13-.16.19l-.6.76L31,49.61l-.26.33,0,0,0,0a4.21,4.21,0,0,0-.87,3.21A3.36,3.36,0,0,0,30,54V58.1a5.75,5.75,0,0,0,5.76,5.73h9a5.7,5.7,0,0,0,5.67-5.73V54a5.73,5.73,0,0,0-5.72-5.73h-.91a5.71,5.71,0,0,0-5.55-4.13Z"/><path class="cls-1" d="M33.25,53a2.74,2.74,0,0,0-2.72-2.77H25.31A1.31,1.31,0,0,1,24,48.89V44.73a6.3,6.3,0,0,0-12.6,0V56.09c0,3.57,2.52,5.44,5.62,5.44H30.49a2.77,2.77,0,0,0,2.76-2.76Z"/><line class="cls-6" x1="56.61" y1="38.45" x2="56.61" y2="69.27"/><path class="cls-7" d="M29.61,15.68H6.23v5.57h0a11.69,11.69,0,0,0,23.38,0h0Z"/><path class="cls-8" d="M31,17V12.81A10.79,10.79,0,0,0,20.2,2H14.67A10.79,10.79,0,0,0,3.88,12.81V17Z"/><line class="cls-3" x1="3.88" y1="16.99" x2="36" y2="16.99"/><path class="cls-9" d="M19.66,8.23a5.39,5.39,0,0,1,5.1,2.83"/><path class="cls-1" d="M20.29,90.28v-4.7h0V80.65H34.37a5,5,0,0,1,4.9,4.94v4.69Z"/><path class="cls-1" d="M8.53,90.28v-4.7h0V80.65H22.61a5,5,0,0,1,4.9,4.94v4.69Z"/><line class="cls-9" x1="19.18" y1="85.06" x2="21.52" y2="85.06"/><line class="cls-9" x1="32.44" y1="85.06" x2="34.01" y2="85.06"/></g></svg>