<svg width="141" height="33" viewBox="0 0 141 33" fill="none" xmlns="http://www.w3.org/2000/svg">
<path d="M95.7743 0.305556C95.5339 0.101852 95.2248 0 94.7441 0H94.6754H90.5202H90.4516C89.9708 0 89.6617 0.101852 89.4214 0.305556C89.2153 0.509259 89.1123 0.882716 89.1123 1.35802V1.49383V5.4321V5.5679C89.1123 6.04321 89.2153 6.41667 89.4214 6.62037C89.6617 6.82407 89.9708 6.92593 90.4516 6.92593H90.5202H94.6754H94.7441C95.2248 6.92593 95.5339 6.82407 95.7743 6.62037C95.9803 6.41667 96.0833 6.04321 96.0833 5.5679V5.4321V1.49383V1.35802C96.1177 0.882716 96.0146 0.509259 95.7743 0.305556Z" fill="white"/>
<path d="M95.6026 9.47221C95.5682 9.43826 95.5339 9.43826 95.4995 9.40431C95.4309 9.37036 95.3622 9.33641 95.2935 9.30246C95.1561 9.26851 94.9844 9.23456 94.7784 9.23456H94.641H90.5889H90.4516C90.2455 9.23456 90.0738 9.26851 89.9365 9.30246C89.8678 9.33641 89.7991 9.37036 89.7304 9.40431C89.6961 9.43826 89.6617 9.43826 89.6274 9.47221C89.3183 9.67592 89.1123 10.0494 89.1123 10.5926V30.8951C89.1123 31.4383 89.284 31.8117 89.6274 32.0154C89.6617 32.0494 89.6961 32.0494 89.7304 32.0833C89.7991 32.1173 89.8678 32.1512 89.9365 32.1852C90.0738 32.2191 90.2455 32.2531 90.4516 32.2531H90.5889H94.641H94.7784C94.9844 32.2531 95.1561 32.2191 95.2935 32.1852C95.3622 32.1512 95.4309 32.1173 95.4995 32.0833C95.5339 32.0494 95.5682 32.0494 95.6026 32.0154C95.9116 31.8117 96.1177 31.4383 96.1177 30.8951V10.5926C96.1177 10.0494 95.946 9.67592 95.6026 9.47221Z" fill="white"/>
<path d="M121.254 16.8395C120.98 15.8889 120.568 15.0062 120.018 14.1913C119.503 13.3765 118.885 12.5957 118.164 11.9167C117.443 11.2037 116.619 10.6265 115.726 10.1173C114.867 9.60801 113.906 9.23455 112.91 8.96295C111.914 8.69134 110.884 8.55554 109.819 8.55554C108.652 8.55554 107.553 8.69134 106.488 8.9969C105.458 9.30246 104.462 9.70986 103.569 10.2531C102.677 10.7963 101.852 11.4413 101.131 12.1883C100.41 12.9352 99.792 13.75 99.2769 14.6667C98.7618 15.5494 98.3841 16.5339 98.1093 17.5525C97.8346 18.571 97.6973 19.6234 97.6973 20.7438C97.6973 22.4753 98.0407 24.1049 98.7275 25.5988C99.4143 27.0926 100.341 28.3827 101.509 29.5031C102.677 30.6234 104.05 31.4722 105.595 32.0833C107.175 32.7284 108.823 33.0339 110.575 33.0339C112.154 33.0339 113.631 32.7623 115.039 32.1852C116.447 31.608 117.717 30.8272 118.851 29.8426C119.022 29.7068 119.194 29.537 119.331 29.3673C119.469 29.1975 119.538 28.9599 119.538 28.7222C119.538 28.5864 119.537 28.4506 119.469 28.3148C119.434 28.213 119.331 28.0432 119.194 27.8734L117.168 25.6327C116.962 25.429 116.756 25.2592 116.584 25.1574C116.413 25.0555 116.241 24.9876 116.069 24.9876C115.897 24.9876 115.76 25.0216 115.588 25.1234C115.451 25.1913 115.279 25.3271 115.073 25.4969C114.833 25.7006 114.558 25.9383 114.146 26.142C113.768 26.3457 113.356 26.5154 112.91 26.6852C112.429 26.8549 111.983 26.9568 111.468 27.0586C110.987 27.1605 110.506 27.1944 110.06 27.1944C109.545 27.1944 108.995 27.1265 108.411 26.9907C107.828 26.8549 107.312 26.6173 106.763 26.3117C106.282 26.0062 105.802 25.5648 105.424 25.0216C105.046 24.4784 104.771 23.8333 104.668 23.0185H118.473C119.263 23.0185 119.881 22.9846 120.293 22.8827C120.705 22.7809 121.014 22.6111 121.186 22.3734C121.358 22.1018 121.461 21.7963 121.461 21.3889C121.461 20.9815 121.495 20.4383 121.495 19.7932C121.667 18.7747 121.529 17.7901 121.254 16.8395ZM105.046 17.6543C105.252 17.2469 105.527 16.8055 105.836 16.3981C106.179 15.9907 106.523 15.6173 106.935 15.2778C107.347 14.9383 107.793 14.7006 108.24 14.4969C108.72 14.2932 109.201 14.1913 109.682 14.1913C110.369 14.1913 110.987 14.2932 111.502 14.4629C112.017 14.6327 112.498 14.8704 112.876 15.1759C113.288 15.4815 113.631 15.8549 113.94 16.2623C114.249 16.6697 114.558 17.1111 114.833 17.6204H105.046V17.6543Z" fill="white"/>
<path d="M140.382 22.1698C140.004 21.321 139.455 20.5741 138.768 19.963C138.081 19.3519 137.257 18.8426 136.295 18.4352C135.368 18.0278 134.304 17.6204 133.17 17.2809C132.861 17.179 132.552 17.1111 132.175 17.0432C131.831 16.9753 131.488 16.8735 131.179 16.7716C130.835 16.6358 130.595 16.5 130.355 16.3302C130.149 16.1605 130.011 15.8889 129.977 15.5833C129.943 15.142 130.114 14.8364 130.492 14.6327C130.87 14.429 131.35 14.3272 132.003 14.3272C132.484 14.3272 133.033 14.3951 133.617 14.5648C134.166 14.7346 134.681 15.0401 135.128 15.5494C135.231 15.6512 135.334 15.787 135.471 15.8549C135.609 15.9568 135.746 15.9907 135.883 16.0247C136.021 16.0586 136.158 16.0586 136.295 16.0247C136.467 15.9907 136.604 15.9228 136.742 15.787C137.223 15.3117 137.703 14.9043 138.15 14.4969C138.596 14.1235 139.077 13.7161 139.558 13.3426C139.832 13.1049 139.97 12.8673 139.97 12.6296C139.97 12.4259 139.832 12.1883 139.626 11.9506C139.043 11.3395 138.425 10.8302 137.841 10.3889C137.257 9.94753 136.639 9.60803 135.986 9.33642C135.368 9.06482 134.681 8.86111 133.995 8.72531C133.308 8.58951 132.552 8.52161 131.763 8.52161C130.458 8.52161 129.256 8.69136 128.157 8.99691C127.092 9.30247 126.165 9.77778 125.41 10.3889C124.62 11 124.036 11.713 123.624 12.5617C123.212 13.3765 123.006 14.3272 123.006 15.3457C123.006 16.2284 123.109 17.0432 123.349 17.8241C123.59 18.6049 124.002 19.3519 124.551 20.0309C125.135 20.7438 125.925 21.3549 126.886 21.8981C127.882 22.4753 129.118 22.9167 130.664 23.3241C131.144 23.4938 131.557 23.5957 131.934 23.6975C132.312 23.8333 132.655 23.9352 132.896 24.071C133.17 24.2068 133.377 24.3765 133.514 24.5802C133.651 24.784 133.72 25.0556 133.72 25.3951C133.72 25.7685 133.583 26.0741 133.342 26.2778C133.102 26.4815 132.793 26.6512 132.449 26.7191C132.106 26.821 131.763 26.8889 131.35 26.8889C130.973 26.9228 130.664 26.9228 130.423 26.9228C130.32 26.9228 130.149 26.8889 129.874 26.821C129.599 26.7531 129.256 26.6512 128.912 26.5154C128.535 26.3796 128.157 26.1759 127.745 25.9722C127.367 25.7346 126.989 25.463 126.646 25.1235C126.268 24.784 125.959 24.5802 125.753 24.5123C125.513 24.4444 125.238 24.5123 124.929 24.784L122.491 27.1605C122.353 27.2963 122.216 27.3981 122.147 27.5679C122.079 27.7377 122.044 27.9074 122.044 28.0772C122.044 28.2809 122.079 28.4506 122.147 28.6543C122.216 28.858 122.319 29.0278 122.456 29.1975C123.006 29.8765 123.624 30.4537 124.276 30.929C124.963 31.4043 125.684 31.7778 126.44 32.0833C127.195 32.3889 127.985 32.5926 128.809 32.7284C129.599 32.8642 130.423 32.9321 131.213 32.9321C132.587 32.9321 133.857 32.7623 135.094 32.4228C136.295 32.0833 137.326 31.5741 138.184 30.929C139.043 30.284 139.764 29.4691 140.245 28.5185C140.76 27.5679 141 26.4815 141 25.2593C141 24.071 140.794 23.0185 140.382 22.1698Z" fill="white"/>
<path d="M86.6055 9.64198C86.5368 9.50618 86.4338 9.37038 86.2277 9.30247C86.0904 9.23457 85.8843 9.20062 85.6439 9.20062C85.5753 9.20062 85.5409 9.20062 85.4722 9.20062H85.4379H80.699H80.5273C80.1495 9.20062 79.8748 9.26852 79.6688 9.40433C79.4627 9.54013 79.291 9.81173 79.1193 10.1852L75.2046 23.0864L71.2898 10.1852C71.1181 9.77778 70.9464 9.54013 70.7404 9.40433C70.5344 9.26852 70.2253 9.20062 69.8819 9.20062H69.7102H64.9713H64.9369C64.8683 9.20062 64.7996 9.20062 64.7652 9.20062C64.5249 9.20062 64.3188 9.23457 64.1815 9.30247C63.9754 9.40433 63.8724 9.50618 63.8037 9.64198C63.735 9.74383 63.735 9.87963 63.7694 10.0154C63.735 10.287 63.8037 10.6265 64.0098 10.9661L72.4574 31.5741C72.5604 31.8117 72.6978 32.0154 72.9038 32.1512C73.1099 32.287 73.4533 32.3549 73.9684 32.3549H74.037H76.2004H76.2691C76.7499 32.3549 77.1276 32.287 77.3337 32.1512C77.5397 32.0154 77.6771 31.8117 77.7801 31.5741L86.3994 11C86.6055 10.6265 86.6741 10.321 86.6398 10.0494C86.6398 9.87964 86.6398 9.77778 86.6055 9.64198Z" fill="white"/>
<path d="M138.115 4.65125C138.322 4.65125 138.528 4.6852 138.734 4.71915C138.94 4.78705 139.111 4.85495 139.283 4.9568C139.455 5.05865 139.592 5.1605 139.764 5.29631C139.901 5.43211 140.039 5.60186 140.142 5.77162C140.245 5.94137 140.313 6.11112 140.382 6.31483C140.451 6.51853 140.485 6.72223 140.485 6.92594C140.485 7.12964 140.451 7.33334 140.416 7.53705C140.348 7.74075 140.279 7.9105 140.176 8.08026C140.073 8.25001 139.97 8.41976 139.798 8.55557C139.661 8.69137 139.489 8.82717 139.317 8.89507C139.146 8.99693 138.94 9.06483 138.768 9.13273C138.562 9.20063 138.356 9.20063 138.15 9.20063C137.944 9.20063 137.738 9.16668 137.532 9.13273C137.326 9.06483 137.154 8.99693 136.982 8.89507C136.811 8.79322 136.639 8.69137 136.501 8.55557C136.364 8.41976 136.227 8.25001 136.124 8.08026C136.021 7.9105 135.952 7.74075 135.883 7.53705C135.849 7.33334 135.815 7.12964 135.815 6.92594C135.815 6.72223 135.849 6.51853 135.883 6.34878C135.952 6.14507 136.021 5.97532 136.124 5.80557C136.227 5.63581 136.33 5.46606 136.501 5.36421C136.639 5.22841 136.811 5.0926 136.982 4.99075C137.154 4.8889 137.326 4.821 137.532 4.7531C137.669 4.6852 137.909 4.65125 138.115 4.65125ZM138.115 5.33026C137.978 5.33026 137.806 5.33026 137.669 5.39816C137.532 5.43211 137.394 5.50001 137.291 5.56791C137.154 5.63581 137.051 5.70371 136.948 5.80557C136.845 5.90742 136.776 6.00927 136.708 6.11112C136.639 6.21297 136.605 6.34878 136.536 6.48458C136.502 6.62038 136.467 6.75618 136.467 6.89199C136.467 7.02779 136.502 7.16359 136.536 7.29939C136.57 7.4352 136.639 7.571 136.708 7.67285C136.776 7.80865 136.845 7.91051 136.948 7.97841C137.051 8.08026 137.154 8.14816 137.291 8.21606C137.394 8.28396 137.532 8.35186 137.669 8.38581C137.806 8.41976 137.944 8.45371 138.081 8.45371C138.287 8.45371 138.528 8.41976 138.699 8.31791C138.905 8.25001 139.077 8.11421 139.214 7.97841C139.352 7.8426 139.489 7.67285 139.558 7.46915C139.626 7.26544 139.695 7.09569 139.695 6.85804C139.695 6.72223 139.661 6.58643 139.626 6.45063C139.592 6.31483 139.523 6.17902 139.455 6.07717C139.386 5.94137 139.317 5.83952 139.214 5.77162C139.111 5.66976 139.008 5.60186 138.871 5.53396C138.734 5.46606 138.631 5.39816 138.493 5.36421C138.39 5.36421 138.253 5.33026 138.115 5.33026ZM137.223 5.90742C137.223 5.87347 137.223 5.87347 137.257 5.83952C137.257 5.83952 137.291 5.80557 137.326 5.80557H138.39C138.493 5.80557 138.596 5.83952 138.665 5.87347C138.734 5.90742 138.837 5.97532 138.905 6.04322C138.974 6.11112 139.008 6.17902 139.043 6.28088C139.077 6.38273 139.111 6.45063 139.111 6.55248C139.111 6.68828 139.077 6.82408 139.008 6.92594C138.94 7.02779 138.871 7.12964 138.734 7.19754L139.111 7.97841C139.111 8.01236 139.077 8.04631 139.043 8.04631H138.493C138.459 8.04631 138.459 8.01236 138.425 8.01236L138.081 7.29939H137.875V8.01236C137.875 8.04631 137.875 8.04631 137.841 8.04631C137.841 8.04631 137.806 8.08026 137.772 8.08026H137.223C137.188 8.08026 137.188 8.08026 137.154 8.04631L137.12 8.01236V5.90742H137.223ZM138.425 6.51853C138.425 6.48458 138.425 6.48458 138.425 6.45063C138.425 6.41668 138.39 6.41668 138.39 6.38273C138.356 6.34878 138.356 6.34878 138.322 6.34878C138.287 6.34878 138.287 6.34878 138.253 6.34878H137.944V6.72223H138.253C138.322 6.72223 138.356 6.68828 138.39 6.65433C138.39 6.62038 138.425 6.58643 138.425 6.51853Z" fill="white"/>
<path d="M63.1856 15.9228C62.5331 14.429 61.6403 13.1389 60.5414 12.0525C59.4425 10.9661 58.1376 10.0833 56.6266 9.47222C55.1157 8.82716 53.536 8.52161 51.819 8.52161C50.6858 8.52161 49.5526 8.65741 48.5224 8.96296C47.4579 9.23457 46.462 9.64198 45.5348 10.1512C44.642 10.6605 43.7835 11.3056 43.028 12.0525C42.2725 12.7994 41.6201 13.6142 41.105 14.4969C40.5555 15.4136 40.1434 16.3642 39.8687 17.4506C39.5597 18.5031 39.4223 19.5895 39.4223 20.7438C39.4223 21.8981 39.5597 22.9846 39.8687 24.037C40.1434 25.0895 40.5555 26.0741 41.105 26.9568C41.6201 27.8735 42.2725 28.6883 43.028 29.4352C43.7835 30.1821 44.6076 30.7932 45.5348 31.3364C46.462 31.8457 47.4235 32.2531 48.5224 32.5586C49.5869 32.8302 50.6858 33 51.819 33C52.9523 33 54.0511 32.8642 55.1157 32.5586C56.1459 32.287 57.1417 31.8796 58.0689 31.3364C58.9961 30.7932 59.8203 30.1821 60.5757 29.4352C61.3312 28.6883 61.9493 27.8735 62.4988 26.9568C63.0139 26.0401 63.426 25.0556 63.735 24.037C64.0441 22.9846 64.1814 21.8981 64.1814 20.7438C64.1471 19.0123 63.838 17.4167 63.1856 15.9228ZM56.2832 21.966C56.1802 22.3735 56.0085 22.7469 55.8025 23.0864C55.5964 23.4259 55.3561 23.7315 55.0813 24.0031C54.8066 24.2747 54.4976 24.5123 54.1542 24.716C53.8108 24.9198 53.433 25.0556 53.0553 25.1914C52.6432 25.2932 52.2311 25.3611 51.819 25.3611C51.3726 25.3611 50.9605 25.2932 50.5828 25.1914C50.1707 25.0895 49.793 24.9198 49.4496 24.716C49.1062 24.5123 48.7971 24.2747 48.5224 24.0031C48.2477 23.7315 48.0073 23.4259 47.8013 23.0864C47.5952 22.7469 47.4235 22.3735 47.3205 21.966C47.2175 21.5586 47.1488 21.1512 47.1488 20.7099C47.1488 20.2685 47.2175 19.8611 47.3205 19.4537C47.4235 19.0463 47.5952 18.6728 47.8013 18.3333C48.0073 17.9938 48.2477 17.6883 48.5224 17.4167C48.7971 17.1451 49.1062 16.9074 49.4496 16.7037C49.793 16.5 50.1707 16.3642 50.5828 16.2623C50.9949 16.1605 51.407 16.0926 51.819 16.0926C52.4715 16.0926 53.0553 16.1944 53.6391 16.4321C54.2228 16.6698 54.7036 17.0093 55.1157 17.4167C55.5278 17.8241 55.8712 18.3333 56.1115 18.8765C56.3519 19.4537 56.4893 20.0309 56.4893 20.7099C56.4549 21.1512 56.3863 21.5926 56.2832 21.966Z" fill="white"/>
<path d="M33.8593 0H26.5792C26.0298 0 25.549 0.339506 25.4117 0.848765L19.1274 21.1173L12.8776 0.882716C12.7059 0.339506 12.2251 0 11.6757 0H4.39558C3.77746 0 3.26236 0.475309 3.19368 1.08642L5.87255e-05 30.963C-0.0686213 31.6759 0.480819 32.321 1.2363 32.321H7.0741C7.69222 32.321 8.20732 31.8457 8.31034 31.2346L10.3364 14.9043L15.2814 31.4383C15.4531 31.9475 15.9338 32.321 16.4489 32.321H21.7716C22.3211 32.321 22.8018 31.9815 22.9392 31.4383L27.8841 14.9043L29.9445 31.2346C30.0132 31.8457 30.5627 32.321 31.1808 32.321H37.0186C37.7397 32.321 38.3235 31.7099 38.2548 30.963L35.0612 1.08642C34.9925 0.475309 34.4774 0 33.8593 0Z" fill="white"/>
</svg>
