<svg width="11" height="15" viewBox="0 0 11 15" fill="none" xmlns="http://www.w3.org/2000/svg">
<g opacity="0.3">
<path d="M9.5999 5.79999V13.4C9.5999 13.8 9.2999 14 8.9999 14H1.9999C1.6999 14 1.3999 13.7 1.3999 13.4V5.79999" stroke="#131E29" stroke-width="1.3723" stroke-miterlimit="10"/>
<path d="M3.09998 12.7V5.79999" stroke="#131E29" stroke-width="0.6862" stroke-miterlimit="10"/>
<path d="M4.5 12.7V5.79999" stroke="#131E29" stroke-width="0.6862" stroke-miterlimit="10"/>
<path d="M6.5 12.7V5.79999" stroke="#131E29" stroke-width="0.6862" stroke-miterlimit="10"/>
<path d="M7.8999 12.7V5.79999" stroke="#131E29" stroke-width="0.6862" stroke-miterlimit="10"/>
<path d="M1.3999 4.79999H9.5999" stroke="#131E29" stroke-width="0.6862" stroke-miterlimit="10"/>
<path d="M0.699951 5.1V3.7C0.699951 3.3 0.999951 3 1.39995 3H9.59995C9.99995 3 10.3 3.3 10.3 3.7V5.1" stroke="#131E29" stroke-width="1.3723" stroke-miterlimit="10"/>
<path d="M3.79993 3.09999V1.99999C3.79993 1.59999 4.09993 1.29999 4.49993 1.29999H6.59993C6.99993 1.29999 7.29993 1.59999 7.29993 1.99999V2.99999" stroke="#131E29" stroke-width="0.6862" stroke-miterlimit="10"/>
</g>
</svg>
