<svg width="30" height="22" viewBox="0 0 30 22" fill="none" xmlns="http://www.w3.org/2000/svg">
<path d="M19.7 21.2001C17.6 21.2001 15.9 19.5001 15.9 17.4001C15.9 15.3001 17.6 13.6001 19.7 13.6001C21.8 13.6001 23.5 15.3001 23.5 17.4001C23.5 19.5001 21.8 21.2001 19.7 21.2001ZM19.7 15.6001C18.7 15.6001 17.9 16.4001 17.9 17.4001C17.9 18.4001 18.7 19.2001 19.7 19.2001C20.7 19.2001 21.5 18.4001 21.5 17.4001C21.5 16.4001 20.7 15.6001 19.7 15.6001Z" fill="#131E29"/>
<path d="M6.7 21.2001C4.6 21.2001 2.9 19.5001 2.9 17.4001C2.9 15.3001 4.6 13.6001 6.7 13.6001C8.8 13.6001 10.5 15.3001 10.5 17.4001C10.5 19.5001 8.8 21.2001 6.7 21.2001ZM6.7 15.6001C5.7 15.6001 4.9 16.4001 4.9 17.4001C4.9 18.4001 5.7 19.2001 6.7 19.2001C7.7 19.2001 8.5 18.4001 8.5 17.4001C8.5 16.4001 7.7 15.6001 6.7 15.6001Z" fill="#131E29"/>
<path d="M24.2 19H22.5V17H24.2C24.3 17 24.3 16.9 24.3 16.9V2.1H6.8C6.5 2 6.3 2.2 6.2 2.5L3.5 11.4L2.1 11.9C2 11.9 2 11.9 2 12V16.3C2 16.6 2.3 17 2.7 17H3.8V19H2.7C1.2 19 0 17.8 0 16.3V12C0 11.1 0.6 10.3 1.5 10L1.9 9.9L4.3 2C4.6 0.8 5.7 0 6.8 0H26.3V16.8C26.3 18 25.4 19 24.2 19Z" fill="#131E29"/>
<path d="M16.8 17H9.5V19H16.8V17Z" fill="#131E29"/>
<path d="M3 11.6L2.4 9.7L7.3 8.2V1H9.3V9.7L3 11.6Z" fill="#131E29"/>
<path d="M25.1 12.5C27.3091 12.5 29.1 10.7091 29.1 8.5C29.1 6.29086 27.3091 4.5 25.1 4.5C22.8909 4.5 21.1 6.29086 21.1 8.5C21.1 10.7091 22.8909 12.5 25.1 12.5Z" fill="white"/>
<path d="M25.1 13C22.6 13 20.6 11 20.6 8.5C20.6 6 22.6 4 25.1 4C27.6 4 29.6 6 29.6 8.5C29.6 11 27.6 13 25.1 13ZM25.1 5C23.2 5 21.6 6.6 21.6 8.5C21.6 10.4 23.2 12 25.1 12C27 12 28.6 10.4 28.6 8.5C28.6 6.6 27 5 25.1 5Z" fill="#131E29"/>
<path d="M25.1 10.6998C24.8 10.6998 24.5 10.5998 24.2 10.4998C23.9 10.3998 23.7 10.1998 23.5 9.9998C23.3 9.7998 23.1 9.5998 23 9.2998C22.9 8.9998 22.8 8.6998 22.8 8.3998C22.8 8.0998 22.9 7.7998 23 7.4998C23.1 7.1998 23.3 6.9998 23.5 6.7998L24 7.3998C23.9 7.4998 23.8 7.6998 23.7 7.8998C23.6 8.0998 23.6 8.2998 23.6 8.4998C23.6 8.6998 23.6 8.8998 23.7 9.0998C23.8 9.2998 23.9 9.3998 24 9.5998C24.1 9.6998 24.3 9.7998 24.5 9.8998C24.9 10.0998 25.3 10.0998 25.7 9.8998C25.9 9.7998 26 9.6998 26.2 9.5998C26.3 9.4998 26.4 9.2998 26.5 9.0998C26.6 8.8998 26.6 8.6998 26.6 8.4998C26.6 8.2998 26.6 8.0998 26.5 7.8998C26.4 7.6998 26.3 7.5998 26.2 7.3998L26.7 6.8998C26.9 7.0998 27.1 7.2998 27.2 7.5998C27.3 7.8998 27.4 8.1998 27.4 8.4998C27.4 8.7998 27.3 9.0998 27.2 9.3998C27.1 9.6998 26.9 9.8998 26.7 10.0998C26.5 10.2998 26.3 10.4998 26 10.5998C25.7 10.6998 25.4 10.6998 25.1 10.6998Z" fill="#131E29"/>
<path d="M26.5 8.2H25.6V6.5H27.3V7.3H26.5V8.2Z" fill="#131E29"/>
</svg>
