<svg width="14" height="16" viewBox="0 0 14 16" fill="none" xmlns="http://www.w3.org/2000/svg">
<path d="M8.29971 14.1C7.59971 14.4 6.79971 14.6 5.99971 14.6C3.09971 14.6 0.699707 12.2 0.699707 9.3C0.699707 6.4 3.09971 4 5.99971 4C8.89971 4 11.2997 6.4 11.2997 9.3C11.2997 9.5 11.2997 9.6 11.2997 9.8" stroke="#131E29" stroke-width="1.329" stroke-miterlimit="10"/>
<path d="M6.29991 2.4H5.59991C5.19991 2.4 4.8999 2.1 4.8999 1.7C4.8999 1.3 5.19991 1 5.59991 1H6.29991C6.69991 1 6.99991 1.3 6.99991 1.7C6.99991 2.1 6.69991 2.4 6.29991 2.4Z" stroke="#131E29" stroke-width="0.6645" stroke-miterlimit="10"/>
<path d="M10.4996 5.60001L9.09961 4.20001L9.59961 3.70001C9.89961 3.40001 10.2996 3.40001 10.4996 3.70001L10.9996 4.20001C11.2996 4.50001 11.2996 4.90001 10.9996 5.10001L10.4996 5.60001Z" stroke="#131E29" stroke-width="0.6645" stroke-miterlimit="10"/>
<path d="M1.3998 5.60001L2.79981 4.20001L2.29981 3.70001C1.99981 3.40001 1.5998 3.40001 1.3998 3.70001L0.899805 4.20001C0.599805 4.50001 0.599805 4.90001 0.899805 5.10001L1.3998 5.60001Z" stroke="#131E29" stroke-width="0.6645" stroke-miterlimit="10"/>
<path d="M6 2.39999V3.99999" stroke="#131E29" stroke-width="1.329" stroke-miterlimit="10"/>
<path d="M6 5.39999V8.69999" stroke="#131E29" stroke-width="1.329" stroke-miterlimit="10"/>
<path d="M6 10.3C6.55228 10.3 7 9.85229 7 9.3C7 8.74772 6.55228 8.3 6 8.3C5.44772 8.3 5 8.74772 5 9.3C5 9.85229 5.44772 10.3 6 10.3Z" stroke="#131E29" stroke-width="0.6645" stroke-miterlimit="10"/>
<path d="M10.2996 15C11.7908 15 12.9996 13.7912 12.9996 12.3C12.9996 10.8088 11.7908 9.60001 10.2996 9.60001C8.80844 9.60001 7.59961 10.8088 7.59961 12.3C7.59961 13.7912 8.80844 15 10.2996 15Z" stroke="#131E29" stroke-width="0.6645" stroke-miterlimit="10"/>
<path d="M9.2998 12.3L10.2998 13L11.5998 11.3" stroke="#131E29" stroke-width="0.6645" stroke-miterlimit="10"/>
</svg>
