<svg width="15" height="19" viewBox="0 0 15 19" fill="none" xmlns="http://www.w3.org/2000/svg">
<path d="M5.93502 9.31169C8.23023 9.31169 10.0909 7.45105 10.0909 5.15584C10.0909 2.86063 8.23023 1 5.93502 1C3.63981 1 1.77917 2.86063 1.77917 5.15584C1.77917 7.45105 3.63981 9.31169 5.93502 9.31169Z" stroke="white" stroke-width="0.729" stroke-miterlimit="10"/>
<path d="M11 15.1558V14.3766C8.66234 10.7403 3.33766 10.7403 1 14.3766V15.1558" stroke="white" stroke-width="0.729" stroke-miterlimit="10"/>
<path d="M13.7548 13.1717C12.7879 11.4585 11.1227 12.2891 10.5318 13.016C10.2095 12.393 8.14885 11.0806 7.14763 13.016C6.34186 14.5735 9.02772 16.9617 10.5318 18C12.0896 17.1693 14.8347 15.0852 13.7548 13.1717Z" fill="#EA0029" stroke="white" stroke-width="0.5"/>
</svg>
