<svg width="30" height="30" viewBox="0 0 30 30" fill="none" xmlns="http://www.w3.org/2000/svg">
<path d="M6.24065 11.1C7.34065 11.2001 10.2407 10.5 10.2407 12.4V18.5C10.2407 20.1 8.34066 19.9 7.24065 19.8V11.9C7.24065 11.8 6.24065 11.2001 6.24065 11.1ZM14.5406 28.6C10.3406 28.6 6.04065 26.6 3.94065 23.4H11.2407C11.4407 23.4 14.2407 21.4 14.2407 21.2V9.60005C14.2407 9.50005 14.2406 9.50005 14.1406 9.40005L11.3406 7.40005C11.1406 7.20005 3.44065 7.40005 3.24065 7.30005C7.64066 -0.499952 20.9406 -0.499951 25.6406 7.20005C25.7406 7.40005 23.6406 7.20005 23.6406 7.30005C23.4406 7.20005 23.1406 8.20005 23.0406 8.30005L21.7407 7.30005C21.6407 7.10005 18.5407 7.30005 18.4407 7.20005C18.3407 7.20005 18.3407 7.20005 18.2407 7.30005L15.4407 9.30005C15.2407 9.40005 15.4406 20.9 15.3406 21C15.3406 21.1 15.3407 21.1 15.4407 21.2L18.2407 23.2C18.4407 23.4 24.7406 23.2 25.0406 23.3C22.9406 26.6 18.7406 28.6 14.5406 28.6ZM1.74065 10.5C1.84065 10.6 3.14065 11.4001 3.14065 11.6V22.3C0.840649 19.5 0.140655 13.9 1.74065 10.5ZM18.5406 11.1H22.5406C22.5406 14.4001 22.1407 13.1 25.9407 13.4C26.2407 13.4 26.6407 9.30005 26.7407 9.20005C28.8407 12.4 28.6406 18.6 26.3406 21.7C26.2406 21.6 26.5407 17.8 26.2407 17.8H22.6406C22.4406 17.7 22.6406 19.8 22.5406 19.9C21.4406 19.9 19.5406 20.1 19.6406 18.6V12C19.6406 11.8 18.6406 11.2001 18.5406 11.1ZM14.5406 0.300049C-4.75936 0.600049 -4.75936 29.4 14.5406 29.7C33.8406 29.4 33.8406 0.700049 14.5406 0.300049Z" fill="#7F848B"/>
</svg>
