<svg width="71" height="30" viewBox="0 0 71 30" fill="none" xmlns="http://www.w3.org/2000/svg">
<path d="M2.81798 3.36106C4.41798 2.96106 2.618 2.46106 2.118 2.36106C10.018 0.0610609 22.818 5.16106 26.218 12.7611C28.218 19.6611 18.818 21.0611 13.918 19.8611C13.818 17.6611 14.018 15.6611 13.918 13.2611C16.218 13.3611 21.718 13.6611 20.218 15.3611C18.318 16.0611 19.918 16.7611 21.018 16.6611C26.518 12.5611 16.118 10.7611 13.918 11.1611C13.818 4.26106 11.818 5.26106 11.618 11.1611C2.318 12.5611 2.91798 16.3611 11.318 20.8611C11.418 21.6611 11.418 22.8611 11.918 23.1611C13.118 23.8611 13.918 22.8611 13.818 21.7611C19.918 24.0611 30.818 20.7611 28.818 13.1611C25.618 4.16106 11.818 -1.73894 2.018 0.961061C0.617996 1.66106 0.117984 3.86106 2.81798 3.36106ZM11.418 19.1611C4.81799 16.2611 2.818 13.3611 11.618 13.3611C11.518 14.8611 11.418 17.2611 11.418 19.1611Z" fill="#7F848B"/>
<path d="M31.218 11.261C29.618 12.561 30.418 16.661 30.118 18.761C30.218 19.561 30.018 20.761 30.918 20.961C31.418 21.061 32.018 21.061 32.218 20.661C32.318 20.261 33.218 12.361 31.218 11.261Z" fill="#7F848B"/>
<path d="M33.518 14.7612C34.218 16.9612 41.218 14.7612 41.518 17.4612C41.318 18.9612 35.918 19.9612 34.718 18.2612C34.618 18.0612 34.718 17.5612 35.018 17.3612C36.218 16.7612 37.118 18.2612 38.718 18.0612C41.818 17.5612 39.718 16.5612 38.018 16.3612C32.418 15.1612 32.818 19.8612 37.118 20.6612C39.518 21.3612 44.318 20.0612 42.718 16.1612C42.518 14.0612 34.318 15.1612 35.518 13.6612C36.718 12.6612 44.618 13.9612 43.318 11.6612C40.918 10.8612 33.018 10.5612 33.518 14.7612Z" fill="#7F848B"/>
<path d="M44.618 20.961C46.318 21.161 45.318 17.861 45.818 15.861C46.518 13.461 48.218 22.161 50.718 20.461C53.118 18.061 51.918 11.161 48.918 10.061C48.518 12.461 50.318 14.861 50.118 17.461C49.218 18.961 46.618 9.96104 44.918 12.561C44.218 13.961 42.418 20.361 44.618 20.961Z" fill="#7F848B"/>
<path d="M54.218 21.7611C54.918 22.3611 61.518 20.1611 58.918 18.5611C56.618 18.2611 53.318 20.7611 55.418 16.9611C55.818 16.7611 58.718 17.2611 59.118 16.5611C59.618 14.7611 57.518 15.4611 56.118 15.3611L56.718 13.8611C58.218 13.5611 63.718 14.4611 59.818 11.6611C58.418 11.6611 49.618 11.6611 54.718 13.7611L54.018 15.3611C52.618 15.2611 53.118 16.5611 53.418 16.8611C52.918 17.9611 51.818 21.1611 54.218 21.7611Z" fill="#7F848B"/>
<path d="M61.518 19.8612C61.218 20.2612 58.218 26.4612 59.418 28.3612C59.718 29.1612 61.118 30.1612 61.218 29.4612C61.818 26.6612 62.718 23.8612 63.518 21.2612C73.718 21.7612 71.218 3.56118 62.518 17.9612C61.418 15.6612 65.018 13.4612 64.618 11.4612C62.118 12.2612 59.818 17.3612 61.518 19.8612ZM66.418 16.5612C71.218 10.3612 68.818 19.9612 64.718 19.2612C65.218 18.3612 65.718 17.4612 66.418 16.5612Z" fill="#7F848B"/>
<path d="M28.518 9.36115C28.918 10.6611 29.718 10.5611 30.118 9.46115C34.118 11.5611 41.018 4.26115 35.718 3.56115C33.418 0.161148 25.418 5.06115 28.518 8.46115C28.418 8.66115 28.418 9.06115 28.518 9.36115ZM34.918 4.76115C38.818 4.56115 34.118 9.36115 31.018 8.06115C31.918 6.36115 33.718 4.96115 34.918 4.76115ZM29.318 6.06115C29.818 5.16115 30.918 4.16115 32.118 4.36115C31.118 5.06115 30.018 6.16115 29.318 7.16115C29.118 6.86115 29.218 6.36115 29.318 6.06115Z" fill="#7F848B"/>
</svg>
