<svg width="34" height="30" viewBox="0 0 34 30" fill="none" xmlns="http://www.w3.org/2000/svg">
<path d="M22.1656 8.39985C22.1656 8.29985 22.1656 8.19985 22.1656 8.19985L22.7656 7.99985V7.19985C21.9656 7.49985 22.1656 7.29985 22.1656 6.59985L21.4656 6.79985V10.1999L22.1656 9.99985V8.39985Z" fill="#7F848B"/>
<path d="M30.4656 27.2999L30.7656 28.1999H30.9656L31.2656 27.2999V28.1999H31.3656V26.8999H31.2656L30.8656 27.8999L30.5656 26.8999H30.3656V28.1999H30.4656V27.2999Z" fill="#7F848B"/>
<path d="M29.6656 28.1999H29.7656V27.0999H30.1656V26.8999H29.2656V27.0999H29.6656V28.1999Z" fill="#7F848B"/>
<path d="M29.7656 20.8C30.5656 20.7 30.5656 19.7 30.5656 19.7L28.8656 20C28.8656 19.9 28.9656 20.9 29.7656 20.8Z" fill="#7F848B"/>
<path d="M0.165649 0.199951V0.799951V29.7999H33.0656V28.7999V0.199951H0.165649ZM26.6656 7.29995C26.6656 7.29995 25.2656 6.69995 24.8656 6.49995C24.3656 6.39995 24.2656 6.89995 24.0656 6.89995V4.49995H24.1656L26.3656 5.59995L26.6656 7.29995ZM32.0656 28.9H1.16565V27.9L7.16565 26.9C4.16565 26.3 5.46563 22.9 7.86563 23.3L32.0656 26.2V28.9ZM10.9656 23L25.5656 21.3L29.1656 22.6V25.1L10.9656 23ZM32.0656 25.5L30.5656 25.3V21.5C30.5656 20.9 29.7656 21.3 29.4656 21.2C29.0656 21.2 29.3657 21.7 29.1656 21.8C28.8657 21.8 26.0656 20.3 25.5656 20.4L6.36563 23C5.16563 23.2 4.06564 25.7 5.56564 26.7C5.56564 26.6 3.96564 27.2 4.06564 26.7C3.96564 26.5 4.26563 22.4 3.86563 22.5C3.66563 22.5 2.66565 22.4 2.66565 22.8V27.2L1.06564 27.5V1.29995H4.06564L3.46564 19.8C3.46564 19.8 3.36565 20 3.66565 20.1C3.96565 20.2 4.06564 19.9 4.06564 19.9L7.16565 1.29995H25.4656L26.2656 5.29995L24.2656 4.29995L23.4656 4.49995V5.79995C19.5656 3.89995 15.5656 1.49995 13.1656 6.49995L11.8656 5.89995C9.86563 3.99995 6.56563 7.19995 6.76562 8.99995L8.66565 8.49995C8.66565 7.99995 9.56563 6.79995 10.3656 7.29995C10.8656 7.59995 10.5656 8.19995 10.5656 8.19995L6.76562 13.1V13.8L12.4656 12.4V11.2L9.86563 11.8C10.5656 11.1 13.3656 7.89995 12.0656 6.39995L12.9656 6.89995C12.0656 8.69995 13.3656 11.8 15.4656 11.7L18.3656 10.9C20.3656 10.1 21.4656 5.49995 19.4656 4.19995L23.3656 6.09995V9.59995L23.9656 9.39995C24.0656 8.99995 23.6656 7.49995 24.2656 7.19995C24.8656 7.19995 24.4656 8.89995 24.6656 9.19995L25.2656 8.99995C25.2656 8.79995 25.3657 6.99995 25.1656 6.69995L26.6656 7.39995L27.2656 10.1L25.7656 9.39995L6.06564 14.3V14.8L6.56564 15.1C6.06564 15.3 6.06565 17 6.66565 17.2C7.06565 17.1 8.46564 17 8.46564 16.5L7.86563 16.2C6.96563 17.8 6.36562 14.7 7.76562 15.5L8.36563 15.1C8.26563 14.9 8.06564 14.7 8.06564 14.7L8.76562 15V16.8L10.5656 16.4V15.9L9.56564 16.1V15.7L10.4656 15.5V15.2L9.56564 15.4V15L10.6656 14.7V13.9L11.1656 14.2V16.5L11.9656 16.4V15.1L12.9656 16.2L13.7656 16V13.3L14.1656 13.5C14.0656 14.3 14.3656 14 14.8656 14V15.9L15.5656 15.8V13.9C16.3656 13.7 16.2656 13.7 16.2656 12.9L16.5656 13.1C16.6656 14.6 15.8656 16.1 18.4656 15.3C19.3656 14.8 18.8656 13 18.9656 12.3L19.6656 12.6V15L20.5656 14.8V14L21.4656 14.6L22.7656 14.4L21.7656 13.6C22.3656 13.3 22.1656 12 21.4656 11.9L22.5656 12.2L23.3656 13V14.2L24.3656 14V12.8L25.5656 10.7L27.4656 11.4L28.3656 15.4L25.6656 14.2C25.6656 14.2 6.26565 17.9 6.16565 18C5.96565 18.1 6.06564 18.6 6.06564 18.7C6.36564 18.7 6.56564 18.9 6.56564 18.9V22.4L7.96564 22.2V21.3L10.0656 21V20L7.96564 20.3V19.5L10.2656 19.1V17.8L11.4656 18.3C10.2656 19.1 10.4656 21.6 11.8656 21.7L16.8656 21C19.0656 19.6 16.9656 17 15.1656 16.9L16.5656 16.7L19.7656 18.7L17.6656 20.9L20.0656 20.6L21.0656 19.5L22.3656 20.3L24.6656 20L22.2656 18.3L25.3656 15.2L28.2656 16.4C30.8656 28.4 27.5656 0.999951 27.7656 1.39995H31.7656V25.5H32.0656ZM16.5656 9.69995C13.8656 9.89995 13.8656 7.09995 15.8656 5.69995C19.3656 3.69995 19.9656 9.19995 16.5656 9.69995ZM24.1656 11.5C24.1656 11.6 23.9656 12 23.9656 12L23.1656 11.1C23.2656 11.2 24.3657 11.2 24.1656 11.5ZM21.2656 12.6C21.1656 13 20.9656 13 20.6656 13V12.4C20.8657 12.5 21.1656 12.2 21.2656 12.6ZM18.1656 12.7C18.0656 13.1 18.4656 14.6 17.8656 14.6C17.5656 14.6 17.5656 14.4 17.5656 14.4V12.4L18.1656 12.7ZM13.0656 14.1V15.1L11.6656 13.5L13.0656 14.1ZM22.0656 16.6L21.3656 17.4L19.4656 16.1L22.0656 16.6ZM15.8656 18.5C17.3656 20.1 13.0656 21.2 12.5656 19.9C12.0656 18.4 14.8656 17.7999 15.8656 18.5Z" fill="#7F848B"/>
<path d="M3.36562 21.6999C4.36562 21.9999 4.46562 20.7999 4.46562 20.7999L2.66564 20.3999C2.66564 20.3999 2.46562 21.3999 3.36562 21.6999Z" fill="#7F848B"/>
</svg>
