<svg width="51" height="22" viewBox="0 0 51 22" fill="none" xmlns="http://www.w3.org/2000/svg">
<path d="M24.0156 5.54998V11.05C27.2156 10.75 26.3156 5.14998 24.0156 5.54998Z" fill="#7F848B"/>
<path d="M15.8157 14.25H17.5156L16.7156 6.94995L15.8157 14.25Z" fill="#7F848B"/>
<path d="M0.015625 0.75V21.25H50.5156V0.75H0.015625ZM42.8157 5.65H40.0156V9.45H42.8157V12.55H40.0156V16.45H42.8157V19.55H37.0156V4.05L34.5156 19.55H30.9156C30.9156 19.55 29.1157 8.65 29.1157 8.55C29.4157 10.35 28.3157 12.15 27.3157 12.85L29.2156 19.45H26.2156L24.7156 13.85L24.0156 13.95V19.55H18.2156L17.8157 16.95H15.4156L15.0156 19.55H9.11566V11.35L7.71564 19.55H6.11566L4.71564 11.35V19.55H1.61566V2.55H5.51562L6.91565 11.35L8.31567 2.55H12.2156V18.25L14.6157 2.55H18.7156L21.0156 17.65V2.55C24.3156 2.25 27.6157 2.75 28.6157 5.35L28.3157 2.55H31.4156L32.8157 12.95L34.2156 2.55H42.8157V5.65ZM49.0156 19.55H43.3157V2.55H46.4156V16.55H49.0156V19.55Z" fill="#7F848B"/>
</svg>
