<svg width="150" height="22" viewBox="0 0 150 22" fill="none" xmlns="http://www.w3.org/2000/svg">
<path d="M7.27846 7.30078C-0.521538 7.50078 -0.12155 15.3008 0.0784502 21.1008H5.57845C5.77845 18.7008 5.07845 14.8008 6.07845 12.6008C10.1784 8.90078 8.87845 19.4008 9.07845 21.1008H14.5785C14.6785 15.4008 15.0785 7.60078 7.27846 7.30078Z" fill="#7F848B"/>
<path d="M20.3784 5.60078C22.2784 3.80078 20.8784 0.300779 18.2784 0.400779C15.6784 0.300779 14.1784 3.80078 16.0784 5.60078C19.7784 8.50078 15.5785 8.40078 15.4785 11.3008V21.1008H20.9785V11.3008C20.8785 8.30078 16.6784 8.40078 20.3784 5.60078Z" fill="#7F848B"/>
<path d="M28.8784 11.3009C29.9784 11.4009 30.4784 12.8009 30.5784 13.9009H36.0784C35.3784 5.00089 21.4785 5.60088 21.6785 14.6009C21.4785 23.1009 35.0784 24.6009 36.0784 15.3009H30.5784C28.9784 22.4009 24.7784 12.5009 28.8784 11.3009Z" fill="#7F848B"/>
<path d="M47.4785 15.1009L49.5784 11.3009C51.4784 8.30086 46.6784 5.40086 44.8784 8.50086L42.3784 12.9009V10.0009C42.4784 6.40086 36.8784 6.50086 36.8784 10.0009V21.1009H42.3784V16.8009L45.2784 21.1009C53.4784 21.5009 50.5785 20.1009 47.4785 15.1009Z" fill="#7F848B"/>
<path d="M57.0784 7.3007C50.7784 7.1007 47.4785 15.4007 51.9785 19.6007C55.7785 23.8007 63.7785 21.0007 63.7785 16.0007H58.8784C58.1784 18.2007 55.6784 18.4007 55.3784 15.3007H63.8784C64.6784 12.7007 61.9784 7.0007 57.0784 7.3007ZM55.4785 13.3007C55.8785 10.7007 58.2785 10.7007 58.6785 13.3007H55.4785Z" fill="#7F848B"/>
<path d="M67.3784 0.300781C65.8784 0.300781 64.6785 1.50078 64.6785 3.00078V21.0008H70.1785V3.00078C70.1785 1.60078 68.8784 0.300781 67.3784 0.300781Z" fill="#7F848B"/>
<path d="M78.0784 7.30078C68.6784 7.30078 68.6784 21.7008 78.0784 21.7008C87.5784 21.7008 87.5784 7.40078 78.0784 7.30078ZM78.0784 17.8008C75.8784 17.9008 75.8784 11.2008 78.0784 11.3008C80.3784 11.2008 80.3784 17.9008 78.0784 17.8008Z" fill="#7F848B"/>
<path d="M97.6785 0.300766C94.0785 0.200766 95.0785 5.30077 94.9785 7.50077C88.0785 5.50077 82.9785 14.8008 88.1785 19.6008C92.1785 24.1008 100.878 20.7008 100.478 14.5008V3.00077C100.378 1.60077 99.1785 0.300766 97.6785 0.300766ZM93.1785 17.8008C90.9785 17.9008 90.9785 11.2008 93.1785 11.3008C95.3785 11.2008 95.3785 17.9008 93.1785 17.8008Z" fill="#7F848B"/>
<path d="M108.278 7.3007C101.978 7.1007 98.6785 15.4007 103.178 19.6007C106.978 23.9007 114.978 21.0007 114.978 16.0007H110.078C109.378 18.2007 106.878 18.4007 106.578 15.3007H115.078C115.878 12.7007 113.278 7.0007 108.278 7.3007ZM106.678 13.3007C107.078 10.7007 109.478 10.7007 109.878 13.3007H106.678Z" fill="#7F848B"/>
<path d="M123.178 7.30078C113.778 7.30078 113.778 21.7008 123.178 21.7008C132.578 21.7008 132.578 7.40078 123.178 7.30078ZM123.178 17.8008C120.878 17.9008 120.878 11.2008 123.178 11.3008C125.378 11.2008 125.378 17.9008 123.178 17.8008Z" fill="#7F848B"/>
<path d="M138.178 7.30078C130.378 7.50078 130.778 15.3008 130.978 21.1008H136.478C136.678 18.7008 135.878 14.8008 136.978 12.6008C140.978 8.90078 139.778 19.4008 139.978 21.1008H145.478C145.678 15.4008 146.078 7.60078 138.178 7.30078Z" fill="#7F848B"/>
<path d="M146.178 19.6008H146.678V21.1008H147.078V19.6008H147.578V19.3008H146.178V19.6008Z" fill="#7F848B"/>
<path d="M149.778 19.3008L148.978 20.3008L148.078 19.3008H147.978V21.1008H148.278V20.0008L148.878 20.7008H148.978L149.578 20.0008V21.1008H149.878V19.3008H149.778Z" fill="#7F848B"/>
</svg>
