<svg width="29" height="36" viewBox="0 0 29 36" fill="none" xmlns="http://www.w3.org/2000/svg">
<path d="M22.7156 17C22.7156 18.5 21.6156 21.4 17.8156 25.6V17.2C20.6156 15.4 22.3156 14.2 22.7156 17ZM28.9156 10.1C28.9156 20.9 23.2156 30.4 14.7156 35.7999C6.21562 30.4 0.515625 20.9 0.515625 10.1C0.815625 6.29995 -0.184375 6.39995 3.71563 5.59995C3.81562 5.49995 4.01562 3.89995 4.21563 3.89995L6.91563 3.19995C7.01562 2.99995 7.11562 1.59995 7.41563 1.59995C7.41563 1.49995 14.5156 0.199951 14.5156 0.199951C14.6156 0.199951 14.7156 0.199951 14.9156 0.199951L22.0156 1.49995C22.2156 1.49995 22.4156 2.99995 22.5156 3.09995L25.2156 3.79995C25.4156 3.79995 25.6156 5.39995 25.7156 5.49995C29.5156 6.39995 28.5156 6.29995 28.9156 10.1ZM13.6156 4.59995C13.4156 4.39995 11.5156 4.69995 11.5156 5.09995L11.6156 18.4C12.1156 31 9.01562 12.1 9.61563 5.69995C9.51562 5.29995 7.21563 6.59995 7.41563 6.89995C7.31563 12.2 7.81563 16.8 8.61563 20.2C6.71563 21.6 5.71562 11.2 5.71562 8.29995C5.71562 8.09995 5.61562 7.99995 5.51562 8.19995C1.51562 10.4 5.41563 19.9 6.91563 23.1C7.31563 24.2 8.61562 22.7 9.21562 22.5C10.2156 25.5 11.5156 29 13.7156 30.8C13.6156 30.7 13.6156 4.59995 13.6156 4.59995ZM25.0156 16.6C25.0156 15 24.4156 13.7 22.7156 13.3C26.2156 8.89995 22.4156 4.79995 15.8156 4.49995C15.5156 4.49995 15.8156 30.6 15.7156 30.7C22.6156 25 25.0156 19.2 25.0156 16.6ZM21.8156 9.79995C21.8156 8.29995 20.1156 7.09995 17.8156 6.89995V14.7C20.7156 13 21.8156 11.4 21.8156 9.79995Z" fill="#7F848B"/>
</svg>
